<?xml version="1.0" encoding="UTF-8" standalone="no"?>
<!DOCTYPE svg PUBLIC "-//W3C//DTD SVG 1.1//EN" "http://www.w3.org/Graphics/SVG/1.1/DTD/svg11.dtd">
<svg width="100%" height="100%" viewBox="0 0 1770 261" version="1.1" xmlns="http://www.w3.org/2000/svg" xmlns:xlink="http://www.w3.org/1999/xlink" xml:space="preserve" xmlns:serif="http://www.serif.com/" style="fill-rule:evenodd;clip-rule:evenodd;stroke-linejoin:round;stroke-miterlimit:2;">
    <g transform="matrix(1,0,0,1,-5130.2,-240.782)">
        <g transform="matrix(1,0,0,1,5055,151.208)">
            <g transform="matrix(1,0,0,1,-279.412,-95.6956)">
                <path d="M484.539,327.391L484.539,259.552L541.707,259.552L541.707,327.391L484.539,327.391ZM396.119,327.391L396.119,259.552L452.779,259.552L452.779,327.391L396.119,327.391ZM553.649,236.43L539.42,252.183L484.539,252.183L484.539,207.719C491.399,206.689 493.432,203.856 493.94,200.25L452.779,196.413L452.779,252.183L398.406,252.183L364.613,238.971L364.613,359.914L369.187,359.914C382.145,359.914 396.119,352.799 396.119,349.75L396.119,334.76L452.779,334.76L452.779,434.613L458.623,434.613C470.819,434.613 484.539,426.991 484.539,423.688L484.539,334.76L541.707,334.76L541.707,356.102L547.043,356.102C557.46,356.102 573.213,350.513 573.467,348.48L573.467,264.887C578.803,263.871 582.106,261.33 583.885,259.298L553.649,236.43Z" style="fill-rule:nonzero;"/>
                <path d="M559.681,228.455C555.545,225.326 549.704,225.879 546.228,229.728L534.978,242.183C534.978,242.183 494.539,242.183 494.539,242.183C494.539,242.183 494.539,215.001 494.539,215.001C497.075,213.677 498.864,212.054 500.199,210.384C502.238,207.832 503.383,204.906 503.842,201.646C504.224,198.938 503.48,196.193 501.785,194.049C500.09,191.904 497.59,190.547 494.868,190.293L453.707,186.456C450.906,186.195 448.124,187.126 446.044,189.021C443.964,190.916 442.779,193.599 442.779,196.413L442.779,242.183C442.779,242.183 400.291,242.183 400.291,242.183C400.291,242.183 368.255,229.658 368.255,229.658C365.177,228.455 361.704,228.849 358.975,230.712C356.246,232.576 354.613,235.667 354.613,238.971L354.613,359.914C354.613,365.436 359.09,369.914 364.613,369.914L369.187,369.914C382.235,369.914 396.001,363.865 401.026,359.608C405.101,356.156 406.119,352.24 406.119,349.75L406.119,344.76C406.119,344.76 442.779,344.76 442.779,344.76C442.779,344.76 442.779,434.613 442.779,434.613C442.779,440.136 447.256,444.613 452.779,444.613L458.623,444.613C471.147,444.613 484.828,438.079 489.838,433.403C493.536,429.951 494.539,426.192 494.539,423.688C494.539,423.688 494.539,344.76 494.539,344.76C494.539,344.76 531.707,344.76 531.707,344.76C531.707,344.76 531.707,356.102 531.707,356.102C531.707,361.625 536.184,366.102 541.707,366.102L547.043,366.102C557.014,366.102 571.059,361.774 576.439,358.816C581.745,355.899 583.15,351.639 583.39,349.72C583.441,349.309 583.467,348.895 583.467,348.48L583.467,271.989C587.134,270.137 589.707,267.83 591.41,265.883C593.238,263.794 594.116,261.039 593.832,258.277C593.549,255.516 592.131,252.996 589.917,251.322L559.681,228.455ZM553.649,236.43L539.42,252.183L484.539,252.183L484.539,207.719C491.399,206.689 493.432,203.856 493.94,200.25L452.779,196.413L452.779,252.183L398.406,252.183L364.613,238.971L364.613,359.914L369.187,359.914C382.145,359.914 396.119,352.799 396.119,349.75L396.119,334.76L452.779,334.76L452.779,434.613L458.623,434.613C470.819,434.613 484.539,426.991 484.539,423.688L484.539,334.76L541.707,334.76L541.707,356.102L547.043,356.102C557.46,356.102 573.213,350.513 573.467,348.48L573.467,264.887C578.803,263.871 582.106,261.33 583.885,259.298L553.649,236.43ZM484.539,327.391L484.539,259.552L541.707,259.552L541.707,327.391L484.539,327.391ZM396.119,327.391L396.119,259.552L452.779,259.552L452.779,327.391L396.119,327.391ZM494.539,317.391L494.539,269.552C494.539,269.552 531.707,269.552 531.707,269.552C531.707,269.552 531.707,317.391 531.707,317.391L494.539,317.391ZM406.119,317.391L406.119,269.552C406.119,269.552 442.779,269.552 442.779,269.552C442.779,269.552 442.779,317.391 442.779,317.391L406.119,317.391Z" style="fill:white;"/>
                <path d="M674.337,400.566L674.337,317.482L774.699,317.482L774.699,400.566L674.337,400.566ZM774.699,230.587L774.699,310.368L674.337,310.368L674.337,230.587L774.699,230.587ZM787.403,206.449L772.158,223.218L676.37,223.218L642.831,209.498L642.831,433.089L648.167,433.089C661.887,433.089 674.337,425.466 674.337,421.401L674.337,407.935L774.699,407.935L774.699,431.056L779.781,431.056C791.468,431.056 806.713,423.434 806.967,421.147L806.967,235.668C812.049,234.398 815.352,232.365 817.13,230.332L787.403,206.449Z" style="fill-rule:nonzero;"/>
                <path d="M793.666,198.653C789.545,195.342 783.559,195.811 780.004,199.722L767.734,213.218C767.734,213.218 678.336,213.218 678.336,213.218C678.336,213.218 646.618,200.242 646.618,200.242C643.534,198.981 640.024,199.338 637.257,201.195C634.491,203.053 632.831,206.166 632.831,209.498L632.831,433.089C632.831,438.612 637.308,443.089 642.831,443.089L648.167,443.089C660.399,443.089 671.778,438.144 677.541,433.514C682.631,429.424 684.337,424.602 684.337,421.401C684.337,421.401 684.337,417.935 684.337,417.935C684.337,417.935 764.699,417.935 764.699,417.935C764.699,417.935 764.699,431.056 764.699,431.056C764.699,436.579 769.176,441.056 774.699,441.056L779.781,441.056C791.262,441.056 805.534,435.049 810.945,431.215C815.462,428.015 816.698,424.126 816.906,422.251C816.947,421.885 816.967,421.516 816.967,421.147L816.967,242.63C820.474,240.888 822.977,238.837 824.656,236.918C826.451,234.867 827.33,232.172 827.092,229.458C826.854,226.743 825.518,224.244 823.394,222.537L793.666,198.653ZM787.403,206.449L772.158,223.218L676.37,223.218L642.831,209.498L642.831,433.089L648.167,433.089C661.887,433.089 674.337,425.466 674.337,421.401L674.337,407.935L774.699,407.935L774.699,431.056L779.781,431.056C791.468,431.056 806.713,423.434 806.967,421.147L806.967,235.668C812.049,234.398 815.352,232.365 817.13,230.332L787.403,206.449ZM674.337,400.566L674.337,317.482L774.699,317.482L774.699,400.566L674.337,400.566ZM684.337,390.566L684.337,327.482C684.337,327.482 764.699,327.482 764.699,327.482C764.699,327.482 764.699,390.566 764.699,390.566L684.337,390.566ZM774.699,230.587L774.699,310.368L674.337,310.368L674.337,230.587L774.699,230.587ZM764.699,240.587L764.699,300.368C764.699,300.368 684.337,300.368 684.337,300.368C684.337,300.368 684.337,240.587 684.337,240.587L764.699,240.587Z" style="fill:white;"/>
                <path d="M994.218,390.927C996.755,380.231 1000.06,365.504 1002.09,355.578L1013.79,355.578L1013.79,390.927L994.218,390.927ZM1001.83,288.755L1050.9,288.755L1050.9,314.449L1001.83,314.449L1001.83,288.755ZM1057.5,390.927L1040.47,390.927L1040.47,355.578L1077.8,355.578C1081.36,355.578 1083.64,354.313 1084.41,351.53C1076.79,343.655 1064.1,332.984 1064.1,332.984L1052.68,348.242L1040.47,348.242L1040.47,321.531L1050.9,321.531L1050.9,328.418L1055.47,328.418C1063.59,328.418 1076.53,323.827 1076.79,322.042L1076.79,292.062C1081.1,291.045 1084.15,289.264 1085.68,287.743L1060.29,268.938L1048.61,281.419L1002.85,281.419L975.438,270.465L975.438,333.743L978.991,333.743C989.904,333.743 1001.83,328.163 1001.83,325.867L1001.83,321.531L1013.79,321.531L1013.79,348.242L963.474,348.242L965.51,355.578L976.707,355.578C975.184,364.486 972.384,378.207 969.583,388.378C966.274,389.907 962.71,391.939 960.165,393.963L984.321,409.697L994.471,398.264L1013.79,398.264L1013.79,435.105L1018.62,435.105C1032.34,435.105 1040.47,430.278 1040.47,429.008L1040.47,398.264L1087.96,398.264C1091.27,398.264 1094.06,396.999 1094.57,394.216C1085.42,386.083 1070.69,374.157 1070.69,374.157L1057.5,390.927ZM1023.69,230.571L1043.77,230.571L1043.77,259.314L1020.14,259.314L1023.69,230.571ZM889.527,329.948L889.527,303.238L934.277,303.238L934.277,329.948L889.527,329.948ZM934.277,269.191L934.277,295.901L889.527,295.901L889.527,269.191L934.277,269.191ZM1068.67,256.513L1068.67,234.386C1073.75,233.368 1077.56,231.334 1079.34,229.306L1053.68,210.022L1041.25,223.234L1024.84,223.234L1027.12,207.227C1032.42,206.465 1035.44,203.67 1036.2,199.859L1000.84,196.302C1000.08,204.686 999.311,214.087 998.29,223.234L968.042,223.234L970.33,230.571L997.527,230.571C996.257,241.02 994.987,251.437 993.97,259.314L961.702,259.314L963.719,266.155L943.138,250.15L932.213,261.854L925.607,261.854L925.607,240.226L961.432,240.226C964.989,240.226 967.53,238.961 968.292,236.179C959.145,227.804 944.409,215.856 944.409,215.856L931.197,233.143L925.607,233.143L925.607,205.941C931.451,204.924 933.483,202.638 933.992,199.335L898.959,196.286L898.959,233.143L857.545,233.143L859.578,240.226L898.959,240.226L898.959,261.854L890.547,261.854L865.93,251.676L865.93,349.734L869.228,349.734C879.378,349.734 889.527,344.399 889.527,342.112L889.527,337.284L899.214,337.284L899.214,374.666L857.037,374.666L859.07,381.749L899.214,381.749L899.214,433.835L904.036,433.835C917.486,433.835 925.607,428.499 925.607,426.975L925.607,381.749L963.466,381.749C967.024,381.749 969.565,380.484 970.073,377.701C961.433,369.58 947.219,358.137 947.219,358.137L934.531,374.666L925.607,374.666L925.607,337.284L934.277,337.284L934.277,345.676L938.337,345.676C946.711,345.676 958.384,339.827 958.637,337.539L958.637,271.48C962.195,270.972 964.991,269.192 966.261,267.921L964.228,266.396L1090.78,266.396C1094.33,266.396 1096.62,265.131 1097.38,262.349C1090.27,254.74 1077.56,243.815 1077.56,243.815L1068.67,256.513Z" style="fill-rule:nonzero;"/>
                <path d="M856.148,249.618C856.003,250.288 855.93,250.977 855.93,251.676L855.93,349.734C855.93,355.257 860.407,359.734 865.93,359.734L869.228,359.734C876.647,359.734 884.012,357.448 889.214,354.908L889.214,364.666C889.214,364.666 857.037,364.666 857.037,364.666C853.897,364.666 850.939,366.141 849.05,368.649C847.16,371.157 846.559,374.406 847.425,377.425L849.458,384.507C850.688,388.794 854.609,391.749 859.07,391.749L889.214,391.749C889.214,391.749 889.214,433.835 889.214,433.835C889.214,439.358 893.691,443.835 899.214,443.835L904.036,443.835C918.277,443.835 927.834,438.714 931.155,435.873C935.031,432.558 935.607,428.859 935.607,426.975C935.607,426.975 935.607,391.749 935.607,391.749L950.417,391.749C950.215,392.618 950.133,393.522 950.176,394.435C950.327,397.646 952.013,400.588 954.707,402.342L978.863,418.077C983.011,420.779 988.512,420.039 991.799,416.337L998.966,408.264C998.966,408.264 1003.79,408.264 1003.79,408.264C1003.79,408.264 1003.79,435.105 1003.79,435.105C1003.79,440.628 1008.27,445.105 1013.79,445.105L1018.62,445.105C1032.81,445.105 1042.24,440.575 1045.5,438.136C1049.95,434.811 1050.47,430.799 1050.47,429.008C1050.47,429.008 1050.47,408.264 1050.47,408.264C1050.47,408.264 1087.96,408.264 1087.96,408.264C1096.71,408.264 1103.06,403.378 1104.41,396.012C1105.04,392.577 1103.83,389.063 1101.21,386.743C1091.93,378.489 1076.99,366.385 1076.99,366.385C1076.62,366.087 1076.23,365.817 1075.83,365.578L1077.8,365.578C1086.92,365.578 1092.1,361.304 1094.05,354.172C1094.99,350.764 1094.05,347.115 1091.59,344.576C1087.91,340.776 1083.1,336.346 1079,332.7C1079.43,332.497 1079.82,332.295 1080.16,332.1C1085.07,329.33 1086.42,325.342 1086.68,323.448C1086.75,322.982 1086.79,322.512 1086.79,322.042L1086.79,299C1089.44,297.641 1091.43,296.129 1092.74,294.823C1094.8,292.767 1095.86,289.914 1095.65,287.011C1095.44,284.107 1093.97,281.44 1091.63,279.708L1087.16,276.396L1090.78,276.396C1099.89,276.396 1105.07,272.121 1107.03,264.991C1107.94,261.642 1107.06,258.056 1104.69,255.519C1098.69,249.112 1088.9,240.438 1085.39,237.37C1085.94,236.875 1086.44,236.382 1086.86,235.9C1088.69,233.807 1089.58,231.044 1089.29,228.276C1089,225.507 1087.57,222.983 1085.35,221.311L1059.69,202.028C1055.61,198.966 1049.89,199.458 1046.4,203.169L1045.36,204.27C1045.63,203.469 1045.84,202.646 1046.01,201.806C1046.56,199.042 1045.92,196.174 1044.24,193.909C1042.56,191.644 1040.01,190.191 1037.2,189.909L1001.84,186.352C999.189,186.085 996.537,186.89 994.479,188.587C992.421,190.285 991.126,192.735 990.884,195.392C990.371,201.009 989.858,207.086 989.268,213.234C989.268,213.234 968.042,213.234 968.042,213.234C965.261,213.234 962.625,214.391 960.747,216.395C955.175,211.713 950.707,208.088 950.707,208.088C948.608,206.387 945.91,205.607 943.227,205.926C942.892,205.966 942.562,206.022 942.236,206.095C943.046,204.495 943.583,202.752 943.875,200.855C944.296,198.121 943.565,195.335 941.857,193.159C940.148,190.983 937.615,189.612 934.859,189.372L899.826,186.323C897.034,186.08 894.268,187.02 892.202,188.914C890.136,190.809 888.959,193.483 888.959,196.286L888.959,223.143C888.959,223.143 857.545,223.143 857.545,223.143C854.405,223.143 851.447,224.618 849.558,227.126C847.669,229.634 847.067,232.884 847.933,235.902L849.966,242.984C850.866,246.122 853.208,248.546 856.148,249.618ZM1057.5,390.927L1040.47,390.927L1040.47,355.578L1077.8,355.578C1081.36,355.578 1083.64,354.313 1084.41,351.53C1076.79,343.655 1064.1,332.984 1064.1,332.984L1052.68,348.242L1040.47,348.242L1040.47,321.531L1050.9,321.531L1050.9,328.418L1055.47,328.418C1063.59,328.418 1076.53,323.827 1076.79,322.042L1076.79,292.062C1081.1,291.045 1084.15,289.264 1085.68,287.743L1060.29,268.938L1048.61,281.419L1002.85,281.419L975.438,270.465L975.438,333.743L978.991,333.743C989.904,333.743 1001.83,328.163 1001.83,325.867L1001.83,321.531L1013.79,321.531L1013.79,348.242L963.474,348.242L965.51,355.578L976.707,355.578C975.184,364.486 972.384,378.207 969.583,388.378C966.274,389.907 962.71,391.939 960.165,393.963L984.321,409.697L994.471,398.264L1013.79,398.264L1013.79,435.105L1018.62,435.105C1032.34,435.105 1040.47,430.278 1040.47,429.008L1040.47,398.264L1087.96,398.264C1091.27,398.264 1094.06,396.999 1094.57,394.216C1085.42,386.083 1070.69,374.157 1070.69,374.157L1057.5,390.927ZM1068.67,256.513L1068.67,234.386C1073.75,233.368 1077.56,231.334 1079.34,229.306L1053.68,210.022L1041.25,223.234L1024.84,223.234L1027.12,207.227C1032.42,206.465 1035.44,203.67 1036.2,199.859L1000.84,196.302C1000.08,204.686 999.311,214.087 998.29,223.234L968.042,223.234L970.33,230.571L997.527,230.571C996.257,241.02 994.987,251.437 993.97,259.314L961.702,259.314L963.719,266.155L943.138,250.15L932.213,261.854L925.607,261.854L925.607,240.226L961.432,240.226C964.989,240.226 967.53,238.961 968.292,236.179C959.145,227.804 944.409,215.856 944.409,215.856L931.197,233.143L925.607,233.143L925.607,205.941C931.451,204.924 933.483,202.638 933.992,199.335L898.959,196.286L898.959,233.143L857.545,233.143L859.578,240.226L898.959,240.226L898.959,261.854L890.547,261.854L865.93,251.676L865.93,349.734L869.228,349.734C879.378,349.734 889.527,344.399 889.527,342.112L889.527,337.284L899.214,337.284L899.214,374.666L857.037,374.666L859.07,381.749L899.214,381.749L899.214,433.835L904.036,433.835C917.486,433.835 925.607,428.499 925.607,426.975L925.607,381.749L963.466,381.749C967.024,381.749 969.565,380.484 970.073,377.701C961.433,369.58 947.219,358.137 947.219,358.137L934.531,374.666L925.607,374.666L925.607,337.284L934.277,337.284L934.277,345.676L938.337,345.676C946.711,345.676 958.384,339.827 958.637,337.539L958.637,271.48C962.195,270.972 964.991,269.192 966.261,267.921L964.228,266.396L1090.78,266.396C1094.33,266.396 1096.62,265.131 1097.38,262.349C1090.27,254.74 1077.56,243.815 1077.56,243.815L1068.67,256.513ZM994.218,390.927C996.755,380.231 1000.06,365.504 1002.09,355.578L1013.79,355.578L1013.79,390.927L994.218,390.927ZM1065.56,365.578L1050.47,365.578C1050.47,365.578 1050.47,380.927 1050.47,380.927L1052.64,380.927L1062.84,367.973C1063.6,367.005 1064.52,366.196 1065.56,365.578ZM935.607,355.676L935.607,356.841L936.501,355.676L935.607,355.676ZM1003.79,337.285C1003.21,337.602 1002.59,337.922 1001.93,338.242L1003.79,338.242L1003.79,337.285ZM889.527,329.948L889.527,303.238L934.277,303.238L934.277,329.948L889.527,329.948ZM899.527,319.948L899.527,313.238C899.527,313.238 924.277,313.238 924.277,313.238C924.277,313.238 924.277,319.948 924.277,319.948L899.527,319.948ZM1001.83,288.755L1050.9,288.755L1050.9,314.449L1001.83,314.449L1001.83,288.755ZM1011.83,298.755L1040.9,298.755C1040.9,298.755 1040.9,304.449 1040.9,304.449C1040.9,304.449 1011.83,304.449 1011.83,304.449L1011.83,298.755ZM934.277,269.191L934.277,295.901L889.527,295.901L889.527,269.191L934.277,269.191ZM924.277,279.191L924.277,285.901C924.277,285.901 899.527,285.901 899.527,285.901C899.527,285.901 899.527,279.191 899.527,279.191L924.277,279.191ZM1023.69,230.571L1043.77,230.571L1043.77,259.314L1020.14,259.314L1023.69,230.571ZM888.959,250.226L888.594,250.226L888.959,250.377L888.959,250.226ZM1032.53,240.571L1033.77,240.571C1033.77,240.571 1033.77,249.314 1033.77,249.314C1033.77,249.314 1031.45,249.314 1031.45,249.314L1032.53,240.571ZM977.357,240.571C975.706,244.803 972.52,247.879 967.896,249.314L985.155,249.314C985.502,246.529 985.864,243.592 986.234,240.571L977.357,240.571Z" style="fill:white;"/>
                <path d="M1229,384.058C1231.03,382.787 1233.06,380.753 1234.59,377.702C1253.64,360.67 1270.66,343.13 1278.8,334.769L1277.27,331.98C1268.12,336.286 1258.98,340.587 1250.34,344.401L1250.34,250.913L1269.9,250.913C1272.44,284.197 1277.52,316.978 1287.43,342.622C1274.48,362.962 1258.47,378.97 1239.41,390.657L1242.46,393.455C1262.79,384.813 1280.07,373.38 1294.8,358.389C1300.14,367.79 1306.24,375.412 1313.86,381.256C1324.02,389.895 1338.25,395.237 1345.87,387.1C1350.44,382.781 1347.65,374.142 1341.3,364.741L1345.62,328.674L1343.08,327.912C1340.03,336.286 1335.71,348.218 1332.66,353.559C1330.88,356.61 1329.1,356.865 1326.31,353.813C1321.23,349.49 1316.91,343.385 1313.35,335.78C1325.04,318.758 1333.93,299.18 1340.28,277.352C1346.13,277.606 1349.17,275.318 1350.19,272.267L1317.92,263.37C1314.87,280.148 1310.3,295.875 1304.2,310.622C1299.63,292.57 1297.09,271.505 1295.82,250.913L1344.35,250.913C1347.9,250.913 1350.44,249.643 1351.21,246.848C1345.87,242.02 1338.76,236.176 1333.42,231.857C1340.54,224.489 1337.49,207.973 1305.47,202.317L1303.19,204.122C1308.78,210.768 1314.62,222.202 1315.38,231.857C1316.91,233.127 1318.43,233.89 1319.96,234.652L1313.1,243.799L1295.31,243.799C1294.8,230.841 1294.55,218.645 1294.55,206.957C1300.64,205.926 1302.93,203.091 1303.19,199.74L1267.36,196.413C1267.62,212.039 1268.12,227.792 1269.39,243.799L1254.15,243.799L1225.18,229.316L1225.18,281.161C1216.29,272.776 1204.1,263.37 1204.1,263.37L1191.39,280.402L1182.5,280.402L1182.5,243.021L1216.29,243.021C1219.85,243.021 1222.39,241.756 1223.15,238.973C1214.51,230.854 1200.79,219.668 1200.79,219.668L1188.34,235.684L1182.5,235.684L1182.5,205.941C1188.34,204.908 1190.38,202.584 1190.63,199.226L1155.82,196.159L1155.82,235.684L1120.25,235.684L1122.28,243.021L1155.82,243.021L1155.82,280.402L1113.9,280.402L1115.93,287.739L1221.12,287.739C1222.64,287.739 1224.17,287.486 1225.18,286.98L1225.18,346.434C1225.18,351.519 1223.66,353.806 1212.48,360.416L1229,384.058ZM1186.31,340.333L1218.58,340.333C1222.13,340.333 1224.42,339.069 1225.18,336.286C1217.31,328.167 1203.59,315.965 1203.59,315.965L1191.39,333.251L1186.31,333.251L1186.31,302.491C1191.9,301.475 1193.68,299.188 1194.44,296.139L1161.15,292.578L1161.15,381.516C1155.06,375.923 1149.72,368.805 1145.15,359.908C1147.94,344.909 1149.72,329.692 1150.74,315.965C1156.84,315.965 1159.63,313.422 1160.39,309.863L1125.58,303C1127.36,342.621 1123.81,396.26 1110.09,431.548L1112.88,434.089C1128.63,416.318 1137.53,393.209 1143.12,369.568C1160.65,417.079 1191.14,427.991 1248.05,427.991L1336.22,427.991C1336.73,416.828 1342.06,406.918 1352.73,404.632L1352.73,401.344C1328.09,402.107 1271.93,402.107 1249.07,402.107C1222.9,402.107 1202.57,400.836 1186.31,395.751L1186.31,340.333Z" style="fill-rule:nonzero;"/>
                <path d="M1117.08,297.739C1116.03,299.429 1115.5,301.415 1115.59,303.448C1117.32,341.808 1114.05,393.76 1100.77,427.925C1099.27,431.782 1100.3,436.164 1103.36,438.948L1106.15,441.489C1108.13,443.287 1110.75,444.219 1113.42,444.075C1116.09,443.931 1118.59,442.723 1120.36,440.722C1131.51,428.147 1139.52,413.108 1145.39,397.046C1151.11,405.968 1157.7,413.053 1165.27,418.683C1184.73,433.153 1211.19,437.991 1248.05,437.991L1336.22,437.991C1341.56,437.991 1345.96,433.786 1346.21,428.446C1346.5,422.018 1348.68,415.726 1354.83,414.41C1359.44,413.422 1362.73,409.347 1362.73,404.632L1362.73,401.344C1362.73,398.638 1361.63,396.048 1359.69,394.165C1358.4,392.914 1356.81,392.046 1355.1,391.631C1357.47,388.228 1358.51,384.012 1358.02,379.089C1357.55,374.334 1355.34,368.504 1351.65,362.38C1351.65,362.381 1355.55,329.863 1355.55,329.863C1356.12,325.037 1353.15,320.494 1348.49,319.097L1345.95,318.334C1340.88,316.81 1335.49,319.511 1333.68,324.491C1331.92,329.324 1329.74,335.432 1327.65,340.586C1326.7,339.288 1325.8,337.89 1324.93,336.401C1334.47,321.478 1342.1,304.809 1347.93,286.552C1354.62,284.731 1358.11,280.143 1359.68,275.428C1360.55,272.825 1360.31,269.981 1359.01,267.56C1357.72,265.14 1355.49,263.356 1352.85,262.627L1346.34,260.833C1354.14,260.225 1359.08,255.979 1360.86,249.479C1361.85,245.844 1360.71,241.96 1357.92,239.432C1354.31,236.172 1349.92,232.458 1345.78,229.038C1348.66,216.8 1342.07,199.777 1310.7,193.148C1309.08,191.289 1306.76,190.029 1304.11,189.783L1268.29,186.456C1265.46,186.193 1262.65,187.146 1260.57,189.077C1258.48,191.008 1257.32,193.734 1257.36,196.575C1257.56,208.885 1257.92,221.273 1258.67,233.799C1258.67,233.799 1256.51,233.799 1256.51,233.799C1256.51,233.799 1229.66,220.372 1229.66,220.372C1226.56,218.822 1222.87,218.988 1219.93,220.81C1219.51,221.069 1219.11,221.356 1218.74,221.671C1212.52,216.333 1207.11,211.918 1207.11,211.918C1205.02,210.217 1202.34,209.429 1199.66,209.732C1196.99,210.036 1194.55,211.405 1192.9,213.531L1192.5,214.044L1192.5,212.948C1194.51,211.781 1196,210.417 1197.13,209.01C1199.2,206.438 1200.34,203.449 1200.6,199.981C1201.01,194.522 1196.96,189.746 1191.51,189.265L1156.7,186.197C1153.9,185.951 1151.13,186.89 1149.07,188.784C1147,190.678 1145.82,193.354 1145.82,196.159L1145.82,225.684C1145.82,225.684 1120.25,225.684 1120.25,225.684C1117.12,225.684 1114.18,227.144 1112.29,229.63C1110.4,232.116 1109.78,235.344 1110.61,238.354L1112.64,245.691C1113.84,250.022 1117.79,253.021 1122.28,253.021L1145.82,253.021C1145.82,253.021 1145.82,270.402 1145.82,270.402C1145.82,270.402 1113.9,270.402 1113.9,270.402C1110.77,270.402 1107.83,271.862 1105.94,274.348C1104.05,276.835 1103.42,280.062 1104.26,283.072L1106.29,290.409C1107.49,294.74 1111.43,297.739 1115.93,297.739L1117.08,297.739ZM1186.31,340.333L1218.58,340.333C1222.13,340.333 1224.42,339.069 1225.18,336.286C1217.31,328.167 1203.59,315.965 1203.59,315.965L1191.39,333.251L1186.31,333.251L1186.31,302.491C1191.9,301.475 1193.68,299.188 1194.44,296.139L1161.15,292.578L1161.15,381.516C1155.06,375.923 1149.72,368.805 1145.15,359.908C1147.94,344.909 1149.72,329.692 1150.74,315.965C1156.84,315.965 1159.63,313.422 1160.39,309.863L1125.58,303C1127.36,342.621 1123.81,396.26 1110.09,431.548L1112.88,434.089C1128.63,416.318 1137.53,393.209 1143.12,369.568C1160.65,417.079 1191.14,427.991 1248.05,427.991L1336.22,427.991C1336.73,416.828 1342.06,406.918 1352.73,404.632L1352.73,401.344C1328.09,402.107 1271.93,402.107 1249.07,402.107C1222.9,402.107 1202.57,400.836 1186.31,395.751L1186.31,340.333ZM1229,384.058C1231.03,382.787 1233.06,380.753 1234.59,377.702C1253.64,360.67 1270.66,343.13 1278.8,334.769L1277.27,331.98C1268.12,336.286 1258.98,340.587 1250.34,344.401L1250.34,250.913L1269.9,250.913C1272.44,284.197 1277.52,316.978 1287.43,342.622C1274.48,362.962 1258.47,378.97 1239.41,390.657L1242.46,393.455C1262.79,384.813 1280.07,373.38 1294.8,358.389C1300.14,367.79 1306.24,375.412 1313.86,381.256C1324.02,389.895 1338.25,395.237 1345.87,387.1C1350.44,382.781 1347.65,374.142 1341.3,364.741L1345.62,328.674L1343.08,327.912C1340.03,336.286 1335.71,348.218 1332.66,353.559C1330.88,356.61 1329.1,356.865 1326.31,353.813C1321.23,349.49 1316.91,343.385 1313.35,335.78C1325.04,318.758 1333.93,299.18 1340.28,277.352C1346.13,277.606 1349.17,275.318 1350.19,272.267L1317.92,263.37C1314.87,280.148 1310.3,295.875 1304.2,310.622C1299.63,292.57 1297.09,271.505 1295.82,250.913L1344.35,250.913C1347.9,250.913 1350.44,249.643 1351.21,246.848C1345.87,242.02 1338.76,236.176 1333.42,231.857C1340.54,224.489 1337.49,207.973 1305.47,202.317L1303.19,204.122C1308.78,210.768 1314.62,222.202 1315.38,231.857C1316.91,233.127 1318.43,233.89 1319.96,234.652L1313.1,243.799L1295.31,243.799C1294.8,230.841 1294.55,218.645 1294.55,206.957C1300.64,205.926 1302.93,203.091 1303.19,199.74L1267.36,196.413C1267.62,212.039 1268.12,227.792 1269.39,243.799L1254.15,243.799L1225.18,229.316L1225.18,281.161C1216.29,272.776 1204.1,263.37 1204.1,263.37L1191.39,280.402L1182.5,280.402L1182.5,243.021L1216.29,243.021C1219.85,243.021 1222.39,241.756 1223.15,238.973C1214.51,230.854 1200.79,219.668 1200.79,219.668L1188.34,235.684L1182.5,235.684L1182.5,205.941C1188.34,204.908 1190.38,202.584 1190.63,199.226L1155.82,196.159L1155.82,235.684L1120.25,235.684L1122.28,243.021L1155.82,243.021L1155.82,280.402L1113.9,280.402L1115.93,287.739L1221.12,287.739C1222.64,287.739 1224.17,287.486 1225.18,286.98L1225.18,346.434C1225.18,351.519 1223.66,353.806 1212.48,360.416L1229,384.058ZM1311.33,391.945C1310.04,391.032 1308.79,390.064 1307.59,389.052C1302.09,384.807 1297.27,379.762 1292.93,373.891C1285.09,380.732 1276.64,386.776 1267.51,392.097C1280.48,392.086 1296.28,392.05 1311.33,391.945ZM1209.83,350.333L1196.31,350.333L1196.31,388.09C1204.02,389.848 1212.62,390.881 1222.27,391.453C1221.72,390.964 1221.23,390.406 1220.8,389.784L1204.28,366.143C1202.69,363.861 1202.12,361.017 1202.71,358.297C1203.3,355.576 1204.99,353.225 1207.39,351.808C1208.27,351.287 1209.09,350.798 1209.83,350.333ZM1271,323.879C1265.96,304.596 1262.73,282.994 1260.7,260.913C1260.7,260.913 1260.34,260.913 1260.34,260.913C1260.34,260.913 1260.34,328.871 1260.34,328.871C1263.87,327.233 1267.43,325.56 1271,323.879ZM1215.18,312.961L1215.18,297.739L1204.31,297.739C1204.27,298.016 1204.21,298.291 1204.14,298.565C1203.35,301.717 1201.98,304.447 1199.65,306.775C1200.53,306.395 1201.47,306.142 1202.44,306.03C1205.27,305.704 1208.1,306.6 1210.23,308.492C1210.23,308.492 1212.25,310.283 1215.18,312.961ZM1150.6,297.739L1151.15,297.849L1151.15,297.739L1150.6,297.739ZM1308.23,260.913L1306.57,260.913C1306.73,262.848 1306.91,264.781 1307.1,266.71C1307.44,265.012 1307.77,263.303 1308.08,261.582C1308.12,261.356 1308.17,261.133 1308.23,260.913ZM1192.5,262.192L1196.08,257.391C1197.68,255.243 1200.08,253.827 1202.73,253.463C1205.39,253.098 1208.08,253.814 1210.2,255.451C1210.2,255.451 1212.2,256.992 1215.18,259.395L1215.18,253.021L1192.5,253.021L1192.5,262.192ZM1304.97,233.799L1305.58,233.799C1305.5,233.42 1305.44,233.034 1305.41,232.644C1305.32,231.434 1305.12,230.191 1304.83,228.934L1304.97,233.799Z" style="fill:white;"/>
                <path d="M1467.58,405.394L1467.58,340.603L1551.68,340.603L1551.68,405.394L1467.58,405.394ZM1563.62,317.228L1548.88,333.235L1472.66,333.235C1513.82,310.114 1546.09,280.132 1568.7,244.815C1575.82,244.307 1578.61,243.545 1580.64,240.496L1551.68,212.801L1532.11,230.332L1471.39,230.332C1476.47,223.726 1481.04,217.12 1485.11,210.514C1491.97,211.022 1494,209.752 1495.27,206.957L1453.6,195.269C1437.34,236.939 1402.79,286.484 1369.25,313.671L1371.28,316.212C1395.42,303.762 1419.56,285.468 1440.14,265.396C1446.74,275.813 1453.35,288.517 1454.87,300.459C1480.53,320.531 1507.21,274.542 1446.74,258.789C1453.35,251.675 1459.7,244.561 1465.54,237.447L1532.11,237.447C1501.37,292.582 1438.1,340.857 1365.44,368.298L1366.96,371.601C1392.11,366.52 1415.24,359.405 1436.58,350.513L1436.58,435.375L1442.42,435.375C1458.17,435.375 1467.58,428.515 1467.58,426.229L1467.58,412.762L1551.68,412.762L1551.68,432.326L1556.76,432.326C1567.43,432.326 1582.67,425.72 1582.93,423.434L1582.93,346.193C1588.77,345.177 1592.33,342.636 1594.11,340.349L1563.62,317.228Z" style="fill-rule:nonzero;"/>
                <path d="M1451.7,310.458C1425.2,330.036 1394.51,346.63 1361.9,358.943C1359.31,359.924 1357.23,361.94 1356.18,364.509C1355.13,367.078 1355.19,369.968 1356.36,372.489L1357.88,375.792C1359.82,379.998 1364.4,382.321 1368.94,381.403C1389.42,377.265 1408.59,371.812 1426.58,365.177C1426.58,365.177 1426.58,435.375 1426.58,435.375C1426.58,440.898 1431.06,445.375 1436.58,445.375L1442.42,445.375C1458.86,445.375 1469.77,438.927 1473.56,435.109C1476.88,431.772 1477.58,428.315 1477.58,426.229C1477.58,426.229 1477.58,422.762 1477.58,422.762C1477.58,422.762 1541.68,422.762 1541.68,422.762C1541.68,422.762 1541.68,432.326 1541.68,432.326C1541.68,437.849 1546.15,442.326 1551.68,442.326L1556.76,442.326C1567.22,442.326 1581.25,437.111 1586.61,433.605C1591.35,430.506 1592.65,426.518 1592.87,424.538C1592.91,424.171 1592.93,423.803 1592.93,423.434L1592.93,353.507C1597.27,351.49 1600.18,348.825 1602,346.489C1603.64,344.378 1604.37,341.699 1604.02,339.048C1603.68,336.398 1602.28,333.997 1600.15,332.381L1569.66,309.26C1565.55,306.146 1559.75,306.663 1556.26,310.455L1544.5,323.235C1544.5,323.235 1507.02,323.235 1507.02,323.235C1534.48,303.534 1557.06,280.33 1574.48,254.249C1582.68,253.018 1586.07,250.383 1588.96,246.043C1591.65,242.006 1591.06,236.621 1587.55,233.268L1558.59,205.573C1554.81,201.963 1548.89,201.867 1545,205.354L1528.29,220.332L1491.69,220.332C1494.64,219.921 1496.72,219.074 1498.31,218.114C1501.09,216.428 1502.98,214.165 1504.38,211.095C1505.58,208.438 1505.57,205.386 1504.34,202.74C1503.11,200.093 1500.78,198.117 1497.97,197.329L1456.3,185.641C1451.35,184.252 1446.15,186.844 1444.29,191.634C1428.6,231.836 1395.31,279.673 1362.95,305.903C1358.68,309.364 1358,315.625 1361.44,319.918L1363.47,322.459C1366.45,326.178 1371.63,327.282 1375.86,325.099C1397.29,314.05 1418.72,298.571 1437.83,281.284C1441.28,287.894 1444.09,294.93 1444.95,301.725C1445.29,304.337 1446.64,306.713 1448.71,308.335C1449.71,309.115 1450.71,309.822 1451.7,310.458ZM1563.62,317.228L1548.88,333.235L1472.66,333.235C1513.82,310.114 1546.09,280.132 1568.7,244.815C1575.82,244.307 1578.61,243.545 1580.64,240.496L1551.68,212.801L1532.11,230.332L1471.39,230.332C1476.47,223.726 1481.04,217.12 1485.11,210.514C1491.97,211.022 1494,209.752 1495.27,206.957L1453.6,195.269C1437.34,236.939 1402.79,286.484 1369.25,313.671L1371.28,316.212C1395.42,303.762 1419.56,285.468 1440.14,265.396C1446.74,275.813 1453.35,288.517 1454.87,300.459C1480.53,320.531 1507.21,274.542 1446.74,258.789C1453.35,251.675 1459.7,244.561 1465.54,237.447L1532.11,237.447C1501.37,292.582 1438.1,340.857 1365.44,368.298L1366.96,371.601C1392.11,366.52 1415.24,359.405 1436.58,350.513L1436.58,435.375L1442.42,435.375C1458.17,435.375 1467.58,428.515 1467.58,426.229L1467.58,412.762L1551.68,412.762L1551.68,432.326L1556.76,432.326C1567.43,432.326 1582.67,425.72 1582.93,423.434L1582.93,346.193C1588.77,345.177 1592.33,342.636 1594.11,340.349L1563.62,317.228ZM1467.58,405.394L1467.58,340.603L1551.68,340.603L1551.68,405.394L1467.58,405.394ZM1477.58,395.394L1477.58,350.603C1477.58,350.603 1541.68,350.603 1541.68,350.603C1541.68,350.603 1541.68,395.394 1541.68,395.394L1477.58,395.394ZM1490.35,276.628C1499.29,267.27 1507.28,257.511 1514.16,247.447C1514.16,247.447 1470.23,247.447 1470.23,247.447C1468.31,249.721 1466.34,251.996 1464.34,254.271C1478.49,260.501 1486.46,268.749 1490.35,276.628Z" style="fill:white;"/>
                <path d="M1842.85,263.378C1845.14,264.394 1847.42,264.903 1849.46,264.648C1847.93,269.467 1846.41,274.021 1844.63,277.577C1843.61,279.865 1842.59,280.373 1840.31,279.356C1831.91,275.035 1827.59,260.836 1825.82,244.315C1832.68,249.399 1839.8,256.769 1842.85,263.378ZM1800.68,217.12C1801.69,257.773 1806.52,291.312 1832.44,303.762C1842.09,308.335 1853.78,309.097 1858.1,299.951C1860.13,294.869 1858.61,290.041 1853.02,283.943L1854.03,262.855C1860.89,257.265 1858.35,242.528 1832.69,240.242C1839.8,236.176 1846.92,231.857 1851.49,228.808C1856.07,230.332 1859.62,228.554 1860.64,227.029L1840.06,210.514C1837.01,217.374 1830.91,229.57 1825.58,238.717C1825.07,232.365 1825.07,225.759 1825.32,219.407C1829.13,218.645 1833.2,217.374 1834.47,215.596L1810.59,197.302L1798.13,210.006L1728.53,210.006L1730.82,217.12L1800.68,217.12ZM1759.5,308.589L1759.5,249.134C1762.3,247.372 1764.85,245.339 1767.4,243.052C1768.42,243.306 1769.44,243.561 1770.46,243.815L1770.46,308.589L1759.5,308.589ZM1722.16,308.589C1726.74,299.692 1720.39,283.169 1686.83,276.306L1686.83,274.527L1724.2,274.527C1727.51,274.527 1729.8,273.262 1730.56,270.479C1728.52,268.708 1726.23,266.682 1723.94,264.903C1728.52,263.633 1732.85,262.108 1737.43,260.584L1737.43,308.589L1722.16,308.589ZM1664,337.539L1664,367.806L1651.52,367.806L1651.52,337.539L1664,337.539ZM1697.54,337.539L1697.54,367.806L1685.05,367.806L1685.05,337.539L1697.54,337.539ZM1685.05,406.68L1685.05,375.142L1697.54,375.142L1697.54,406.68L1685.05,406.68ZM1651.52,375.142L1664,375.142L1664,406.68L1651.52,406.68L1651.52,375.142ZM1842.84,316.975C1840.04,323.589 1833.94,334.756 1828.61,343.388C1828.61,334.756 1828.61,326.387 1829.12,318.501C1833.69,317.738 1836.99,316.466 1838.52,314.687L1813.64,294.862L1800.68,308.589L1793.29,308.589L1793.29,235.16C1797.88,234.398 1799.41,232.111 1799.92,229.57L1770.46,226.521L1770.46,235.922L1747.58,221.948C1740.2,237.702 1729.52,251.683 1719.1,260.835C1714.28,257.023 1710.48,253.973 1710.48,253.973L1699.82,267.19L1686.83,267.19L1686.83,224.997C1696.26,223.98 1705.15,222.964 1712.51,221.694C1719.61,224.743 1724.94,224.743 1728.25,222.202L1702.1,196.032C1683.79,205.433 1647.71,218.645 1619.79,225.251L1620.55,229.064C1634.01,229.064 1648.72,228.301 1662.98,227.285L1662.98,267.19L1618.52,267.19L1620.55,274.527L1655.08,274.527C1645.93,293.34 1632.23,312.661 1615.98,326.389L1618.77,329.948C1622.58,328.168 1626.14,326.134 1629.7,324.101L1629.7,434.089L1632.99,434.089C1642.63,434.089 1651.52,429.008 1651.52,426.721L1651.52,413.763L1697.54,413.763L1697.54,426.721L1701.09,426.721C1708.7,426.721 1720.12,421.893 1720.37,420.369L1720.37,340.335C1724.44,339.572 1727.49,337.793 1728.76,336.021L1706.16,318.508L1695.24,330.202L1652.79,330.202L1633.25,321.813C1644.16,315.203 1654.06,307.576 1662.98,299.441L1662.98,327.66L1667.29,327.66C1679.22,327.66 1686.83,322.321 1686.83,320.796L1686.83,281.391C1693.96,289.787 1701.58,301.729 1704.38,311.638C1710.73,315.958 1716.83,314.941 1720.39,311.13L1721.91,315.958L1737.43,315.958L1737.43,324.088C1737.43,363.471 1736.15,402.853 1713.27,433.089L1716.58,435.629C1756.96,406.41 1759.5,363.471 1759.5,323.834L1759.5,315.958L1770.46,315.958L1770.46,434.613L1774.77,434.613C1782.89,434.613 1793.29,429.023 1793.29,426.483L1793.29,315.958L1803.49,315.958C1803.49,365.503 1806.79,412 1831.66,429.023C1840.56,435.375 1852.51,437.408 1858.1,428.261C1860.89,423.688 1859.37,417.59 1853.78,409.713L1855.81,379.224L1853.02,378.97C1850.73,386.846 1848.44,394.468 1845.9,400.566C1844.88,403.107 1843.61,403.615 1841.58,402.345C1833.69,395.993 1830.13,374.65 1828.86,351.783C1835.47,358.643 1841.58,367.79 1843.36,375.412C1859.88,386.084 1873.6,356.356 1833.69,346.955C1841.07,342.89 1848.69,338.571 1853.27,335.268C1857.84,337.046 1861.15,335.522 1862.42,333.997L1842.84,316.975ZM1630.71,230.587C1635.03,237.447 1639.35,249.134 1639.35,258.535C1654.57,273.526 1676.67,243.545 1633.76,229.062L1630.71,230.587ZM1692.68,263.109C1702.09,255.741 1712.25,246.848 1717.84,240.75C1723.18,241.512 1725.98,238.717 1726.74,236.43L1699.55,226.775C1697.77,235.16 1693.7,251.675 1689.89,261.838L1692.68,263.109Z" style="fill-rule:nonzero;"/>
                <path d="M1624.01,239.046C1626.67,244.229 1629,251.154 1629.31,257.19L1618.52,257.19C1615.39,257.19 1612.45,258.65 1610.56,261.136C1608.67,263.622 1608.05,266.85 1608.88,269.86L1610.91,277.197C1612.11,281.528 1616.05,284.527 1620.55,284.527L1638.2,284.527C1630.39,297.24 1620.6,309.392 1609.52,318.748C1605.41,322.222 1604.79,328.33 1608.11,332.565L1610.9,336.124C1613.05,338.854 1616.39,340.212 1619.7,339.905L1619.7,434.089C1619.7,439.612 1624.17,444.089 1629.7,444.089L1632.99,444.089C1643.82,444.089 1653.81,439.058 1657.43,435.589C1660.7,432.454 1661.52,429.041 1661.52,426.721C1661.52,426.721 1661.52,423.763 1661.52,423.763C1661.52,423.763 1687.54,423.763 1687.54,423.763C1687.54,423.763 1687.54,426.721 1687.54,426.721C1687.54,432.244 1692.01,436.721 1697.54,436.721L1701.09,436.721C1701.99,436.721 1702.93,436.669 1703.9,436.57C1704.53,438.275 1705.63,439.826 1707.17,441.015L1710.48,443.556C1713.99,446.254 1718.85,446.326 1722.44,443.731C1742.25,429.397 1753.78,412.066 1760.46,393.41L1760.46,434.613C1760.46,440.136 1764.93,444.613 1770.46,444.613L1774.77,444.613C1783.84,444.613 1794.89,439.426 1798.97,435.61C1802.4,432.406 1803.29,428.867 1803.29,426.483L1803.29,404.857C1808.28,419.048 1815.69,430.176 1825.93,437.218C1839.69,446.999 1857.99,447.61 1866.63,433.476C1866.63,433.476 1866.63,433.476 1866.63,433.476C1870.65,426.897 1870.73,417.969 1863.98,407.011L1865.78,380.014C1869.43,375.136 1870.96,368.342 1868.61,361.041C1867.07,356.265 1863.54,350.828 1856.92,346.115C1863.39,346.268 1867.96,342.968 1870.1,340.399C1873.58,336.219 1873.09,330.021 1868.98,326.451L1855.79,314.981C1860.62,313.021 1864.65,309.504 1867.14,304.221C1867.23,304.038 1867.31,303.852 1867.38,303.664C1870.32,296.319 1869.72,289.005 1863.19,280.512C1863.19,280.513 1863.85,266.902 1863.85,266.902C1869.03,259.754 1869.44,249.054 1860.11,240.29C1859.65,239.854 1859.15,239.421 1858.62,238.996C1863.8,237.916 1867.48,234.8 1868.96,232.576C1871.83,228.265 1870.94,222.473 1866.9,219.23L1846.32,202.715C1843.9,200.773 1840.71,200.065 1837.7,200.796C1836.32,201.132 1835.04,201.752 1833.95,202.602L1816.67,189.363C1812.65,186.29 1806.98,186.693 1803.44,190.302L1793.93,200.006C1793.93,200.006 1728.53,200.006 1728.53,200.006C1726.26,200.006 1724.09,200.776 1722.35,202.151L1709.18,188.964C1706.11,185.89 1701.4,185.151 1697.54,187.135C1679.73,196.276 1644.63,209.096 1617.48,215.52C1612.24,216.76 1608.92,221.93 1609.98,227.212L1610.74,231.024C1611.68,235.699 1615.78,239.064 1620.55,239.064L1624.01,239.046ZM1842.84,316.975C1840.04,323.589 1833.94,334.756 1828.61,343.388C1828.61,334.756 1828.61,326.387 1829.12,318.501C1833.69,317.738 1836.99,316.466 1838.52,314.687L1813.64,294.862L1800.68,308.589L1793.29,308.589L1793.29,235.16C1797.88,234.398 1799.41,232.111 1799.92,229.57L1770.46,226.521L1770.46,235.922L1747.58,221.948C1740.2,237.702 1729.52,251.683 1719.1,260.835C1714.28,257.023 1710.48,253.973 1710.48,253.973L1699.82,267.19L1686.83,267.19L1686.83,224.997C1696.26,223.98 1705.15,222.964 1712.51,221.694C1719.61,224.743 1724.94,224.743 1728.25,222.202L1702.1,196.032C1683.79,205.433 1647.71,218.645 1619.79,225.251L1620.55,229.064C1634.01,229.064 1648.72,228.301 1662.98,227.285L1662.98,267.19L1618.52,267.19L1620.55,274.527L1655.08,274.527C1645.93,293.34 1632.23,312.661 1615.98,326.389L1618.77,329.948C1622.58,328.168 1626.14,326.134 1629.7,324.101L1629.7,434.089L1632.99,434.089C1642.63,434.089 1651.52,429.008 1651.52,426.721L1651.52,413.763L1697.54,413.763L1697.54,426.721L1701.09,426.721C1708.7,426.721 1720.12,421.893 1720.37,420.369L1720.37,340.335C1724.44,339.572 1727.49,337.793 1728.76,336.021L1706.16,318.508L1695.24,330.202L1652.79,330.202L1633.25,321.813C1644.16,315.203 1654.06,307.576 1662.98,299.441L1662.98,327.66L1667.29,327.66C1679.22,327.66 1686.83,322.321 1686.83,320.796L1686.83,281.391C1693.96,289.787 1701.58,301.729 1704.38,311.638C1710.73,315.958 1716.83,314.941 1720.39,311.13L1721.91,315.958L1737.43,315.958L1737.43,324.088C1737.43,363.471 1736.15,402.853 1713.27,433.089L1716.58,435.629C1756.96,406.41 1759.5,363.471 1759.5,323.834L1759.5,315.958L1770.46,315.958L1770.46,434.613L1774.77,434.613C1782.89,434.613 1793.29,429.023 1793.29,426.483L1793.29,315.958L1803.49,315.958C1803.49,365.503 1806.79,412 1831.66,429.023C1840.56,435.375 1852.51,437.408 1858.1,428.261C1860.89,423.688 1859.37,417.59 1853.78,409.713L1855.81,379.224L1853.02,378.97C1850.73,386.846 1848.44,394.468 1845.9,400.566C1844.88,403.107 1843.61,403.615 1841.58,402.345C1833.69,395.993 1830.13,374.65 1828.86,351.783C1835.47,358.643 1841.58,367.79 1843.36,375.412C1859.88,386.084 1873.6,356.356 1833.69,346.955C1841.07,342.89 1848.69,338.571 1853.27,335.268C1857.84,337.046 1861.15,335.522 1862.42,333.997L1842.84,316.975ZM1651.52,375.142L1664,375.142L1664,406.68L1651.52,406.68L1651.52,375.142ZM1685.05,406.68L1685.05,375.142L1697.54,375.142L1697.54,406.68L1685.05,406.68ZM1664,337.539L1664,367.806L1651.52,367.806L1651.52,337.539L1664,337.539ZM1697.54,337.539L1697.54,367.806L1685.05,367.806L1685.05,337.539L1697.54,337.539ZM1759.5,308.589L1759.5,249.134C1762.3,247.372 1764.85,245.339 1767.4,243.052C1768.42,243.306 1769.44,243.561 1770.46,243.815L1770.46,308.589L1759.5,308.589ZM1722.16,308.589C1726.74,299.692 1720.39,283.169 1686.83,276.306L1686.83,274.527L1724.2,274.527C1727.51,274.527 1729.8,273.262 1730.56,270.479C1728.52,268.708 1726.23,266.682 1723.94,264.903C1728.52,263.633 1732.85,262.108 1737.43,260.584L1737.43,308.589L1722.16,308.589ZM1800.68,217.12C1801.69,257.773 1806.52,291.312 1832.44,303.762C1842.09,308.335 1853.78,309.097 1858.1,299.951C1860.13,294.869 1858.61,290.041 1853.02,283.943L1854.03,262.855C1860.89,257.265 1858.35,242.528 1832.69,240.242C1839.8,236.176 1846.92,231.857 1851.49,228.808C1856.07,230.332 1859.62,228.554 1860.64,227.029L1840.06,210.514C1837.01,217.374 1830.91,229.57 1825.58,238.717C1825.07,232.365 1825.07,225.759 1825.32,219.407C1829.13,218.645 1833.2,217.374 1834.47,215.596L1810.59,197.302L1798.13,210.006L1728.53,210.006L1730.82,217.12L1800.68,217.12ZM1803.29,288.022L1803.29,291.255L1804.4,290.077L1804.02,289.392L1803.29,288.022ZM1727.43,284.312C1726.85,284.393 1726.25,284.451 1725.64,284.485C1726.28,285.184 1726.88,285.887 1727.43,286.591L1727.43,284.312ZM1842.85,263.378C1845.14,264.394 1847.42,264.903 1849.46,264.648C1847.93,269.467 1846.41,274.021 1844.63,277.577C1843.61,279.865 1842.59,280.373 1840.31,279.356C1831.91,275.035 1827.59,260.836 1825.82,244.315C1832.68,249.399 1839.8,256.769 1842.85,263.378ZM1692.68,263.109C1702.09,255.741 1712.25,246.848 1717.84,240.75C1723.18,241.512 1725.98,238.717 1726.74,236.43L1699.55,226.775C1697.77,235.16 1693.7,251.675 1689.89,261.838L1692.68,263.109ZM1630.71,230.587C1635.03,237.447 1639.35,249.134 1639.35,258.535C1654.57,273.526 1676.67,243.545 1633.76,229.062L1630.71,230.587Z" style="fill:white;"/>
                <path d="M2010.82,220.153L2010.82,256.01L1996.81,256.01L1996.81,220.153L2010.82,220.153ZM2045.88,220.153L2045.88,256.01L2031.87,256.01L2031.87,220.153L2045.88,220.153ZM2080.18,220.153L2080.18,256.01L2066.94,256.01L2066.94,220.153L2080.18,220.153ZM1996.81,263.347L2080.18,263.347L2080.18,271.224L2084.24,271.224C2091.85,271.224 2103.78,266.904 2104.03,265.126L2104.03,223.968C2108.61,222.951 2112.42,220.916 2113.94,219.141L2089.32,200.621L2077.89,212.817L1998.34,212.817L1973.47,202.908L1973.47,276.305L1976.77,276.305C1986.41,276.305 1996.81,270.969 1996.81,269.191L1996.81,263.347ZM1896.48,202.145C1903.85,210.53 1912.23,224.222 1914.27,236.683C1940.93,253.976 1964.3,203.654 1898.5,200.605L1896.48,202.145ZM1937.62,245.847L1874.36,245.847L1876.39,253.184L1966.08,253.184C1969.38,253.184 1971.93,251.919 1972.69,249.136C1964.05,241.02 1950.08,229.84 1950.08,229.84L1937.62,245.847ZM1884.01,278.37L1886.05,285.706L1956.93,285.706C1960.24,285.706 1962.53,284.441 1963.29,281.658C1955.16,273.786 1941.94,263.347 1941.94,263.347L1930.26,278.37L1884.01,278.37ZM1956.93,318.483C1960.24,318.483 1962.53,317.218 1963.29,314.435C1955.16,306.567 1941.94,296.391 1941.94,296.391L1930.26,311.146L1884.01,311.146L1886.05,318.483L1956.93,318.483ZM1910.44,401.345L1910.44,351.005L1932.8,351.005L1932.8,401.345L1910.44,401.345ZM1942.45,331.202L1930.51,343.922L1911.45,343.922L1885.54,333.238L1885.54,432.056L1889.1,432.056C1899.77,432.056 1910.44,426.467 1910.44,424.18L1910.44,408.427L1932.8,408.427L1932.8,421.639L1937.12,421.639C1945.76,421.639 1958.21,416.049 1958.21,414.017L1958.21,354.82C1963.03,353.802 1966.08,351.768 1967.61,349.993L1942.45,331.202ZM2077.12,384.067L2048.66,384.067L2048.66,359.135L2100.24,359.135C2103.79,359.135 2106.34,357.87 2106.84,355.088C2098.46,346.966 2084.23,336.283 2084.23,336.283L2072.03,351.799L2053.49,351.799C2061.87,346.457 2070.51,340.353 2076.61,336.029C2081.69,337.046 2084.99,335.266 2086.26,332.468L2062.63,322.548L2106.08,322.548C2109.64,322.548 2112.18,321.283 2112.94,318.501C2104.05,310.384 2089.31,298.696 2089.31,298.696L2076.61,315.465L2048.4,315.465L2048.4,293.837L2093.63,293.837C2097.19,293.837 2099.73,292.572 2100.49,289.789C2091.6,281.667 2077.37,270.223 2077.37,270.223L2064.92,286.5L2048.4,286.5L2048.4,273.272C2053.23,272.51 2054.76,270.477 2055.26,267.936L2022.49,264.887L2022.49,286.5L1976.75,286.5L1978.79,293.837L2022.49,293.837L2022.49,315.465L1965.83,315.465L1967.86,322.548L2055.01,322.548C2052.22,331.705 2048.15,343.151 2044.85,351.799L2023,351.799C2031.89,344.68 2029.86,326.121 1994.29,323.326L1992.25,324.85C1998.1,331.206 2004.19,341.884 2005.47,351.29L2006.23,351.799L1972.69,351.799L1974.72,359.135L2021.73,359.135L2021.73,384.067L1962.53,384.067L1964.56,391.404L2021.73,391.404L2021.73,436.122L2026.55,436.122C2040.53,436.122 2048.66,431.548 2048.66,430.278L2048.66,391.404L2107.35,391.404C2110.91,391.404 2113.45,390.139 2114.21,387.356C2105.06,378.725 2090.07,367.531 2090.07,367.531L2077.12,384.067Z" style="fill-rule:nonzero;"/>
                <path d="M1968.21,401.404L2011.73,401.404C2011.73,401.404 2011.73,436.122 2011.73,436.122C2011.73,441.645 2016.2,446.122 2021.73,446.122L2026.55,446.122C2040.89,446.122 2050.3,441.823 2053.55,439.488C2058.12,436.191 2058.66,432.117 2058.66,430.278C2058.66,430.278 2058.66,401.404 2058.66,401.404C2058.66,401.404 2107.35,401.404 2107.35,401.404C2116.31,401.404 2121.94,397.007 2123.86,389.998C2124.83,386.433 2123.76,382.62 2121.07,380.083C2116.96,376.201 2111.71,371.817 2107.08,368.096C2112.42,366.294 2115.7,362.246 2116.68,356.884C2117.28,353.598 2116.2,350.229 2113.8,347.905C2108.64,342.903 2101.35,336.965 2096.25,332.945L2096.26,332.548L2106.08,332.548C2115.04,332.548 2120.66,328.151 2122.59,321.143C2123.58,317.52 2122.46,313.647 2119.68,311.115C2115.71,307.489 2110.6,303.165 2106.1,299.45C2108.02,297.601 2109.37,295.223 2110.14,292.431C2111.13,288.809 2110.01,284.937 2107.24,282.405C2105.58,280.897 2103.75,279.277 2101.86,277.635C2104.26,276.772 2106.31,275.867 2107.68,275.061C2112.35,272.315 2113.66,268.476 2113.93,266.538C2114,266.07 2114.03,265.598 2114.03,265.126L2114.03,230.991C2117.46,229.319 2120.09,227.327 2121.53,225.657C2123.33,223.56 2124.18,220.81 2123.88,218.062C2123.58,215.313 2122.16,212.811 2119.95,211.149L2095.32,192.629C2091.24,189.56 2085.51,190.058 2082.02,193.784L2073.55,202.817C2073.55,202.817 2000.26,202.817 2000.26,202.817C2000.26,202.817 1977.17,193.618 1977.17,193.618C1974.09,192.391 1970.6,192.77 1967.85,194.631C1965.11,196.492 1963.47,199.592 1963.47,202.908L1963.47,227.874C1959.34,224.45 1956.32,222.032 1956.32,222.032C1954.68,220.717 1952.67,219.963 1950.6,219.857C1950.35,218.631 1950,217.402 1949.55,216.174C1945.49,205.04 1931.55,192.126 1898.96,190.616C1896.61,190.507 1894.3,191.23 1892.43,192.658L1890.41,194.198C1888.21,195.881 1886.8,198.401 1886.53,201.159C1886.26,203.917 1887.14,206.665 1888.97,208.747C1894.81,215.395 1901.54,225.86 1903.9,235.847L1874.36,235.847C1871.24,235.847 1868.29,237.307 1866.4,239.793C1864.51,242.28 1863.89,245.507 1864.72,248.517L1866.76,255.854C1867.95,260.185 1871.9,263.184 1876.39,263.184L1929.4,263.184L1925.37,268.37C1925.37,268.37 1884.01,268.37 1884.01,268.37C1880.89,268.37 1877.95,269.829 1876.06,272.316C1874.16,274.802 1873.54,278.029 1874.38,281.04L1876.41,288.376C1877.61,292.708 1881.55,295.706 1886.05,295.706L1929.73,295.706L1925.42,301.146C1925.42,301.146 1884.01,301.146 1884.01,301.146C1880.89,301.146 1877.95,302.606 1876.06,305.092C1874.16,307.578 1873.54,310.806 1874.38,313.816L1876.41,321.153C1876.89,322.898 1877.82,324.426 1879.05,325.629C1876.84,327.514 1875.54,330.29 1875.54,333.238L1875.54,432.056C1875.54,437.579 1880.02,442.056 1885.54,442.056L1889.1,442.056C1900.42,442.056 1911.63,436.96 1915.7,433.51C1919.58,430.231 1920.44,426.485 1920.44,424.18L1920.44,418.427C1920.44,418.427 1922.8,418.427 1922.8,418.427C1922.8,418.427 1922.8,421.639 1922.8,421.639C1922.8,427.162 1927.28,431.639 1932.8,431.639L1937.12,431.639C1946.07,431.639 1958.16,426.932 1962.65,423.73C1967.3,420.409 1968.21,416.201 1968.21,414.017L1968.21,401.404ZM2077.12,384.067L2048.66,384.067L2048.66,359.135L2100.24,359.135C2103.79,359.135 2106.34,357.87 2106.84,355.088C2098.46,346.966 2084.23,336.283 2084.23,336.283L2072.03,351.799L2053.49,351.799C2061.87,346.457 2070.51,340.353 2076.61,336.029C2081.69,337.046 2084.99,335.266 2086.26,332.468L2062.63,322.548L2106.08,322.548C2109.64,322.548 2112.18,321.283 2112.94,318.501C2104.05,310.384 2089.31,298.696 2089.31,298.696L2076.61,315.465L2048.4,315.465L2048.4,293.837L2093.63,293.837C2097.19,293.837 2099.73,292.572 2100.49,289.789C2091.6,281.667 2077.37,270.223 2077.37,270.223L2064.92,286.5L2048.4,286.5L2048.4,273.272C2053.23,272.51 2054.76,270.477 2055.26,267.936L2022.49,264.887L2022.49,286.5L1976.75,286.5L1978.79,293.837L2022.49,293.837L2022.49,315.465L1965.83,315.465L1967.86,322.548L2055.01,322.548C2052.22,331.705 2048.15,343.151 2044.85,351.799L2023,351.799C2031.89,344.68 2029.86,326.121 1994.29,323.326L1992.25,324.85C1998.1,331.206 2004.19,341.884 2005.47,351.29L2006.23,351.799L1972.69,351.799L1974.72,359.135L2021.73,359.135L2021.73,384.067L1962.53,384.067L1964.56,391.404L2021.73,391.404L2021.73,436.122L2026.55,436.122C2040.53,436.122 2048.66,431.548 2048.66,430.278L2048.66,391.404L2107.35,391.404C2110.91,391.404 2113.45,390.139 2114.21,387.356C2105.06,378.725 2090.07,367.531 2090.07,367.531L2077.12,384.067ZM1942.45,331.202L1930.51,343.922L1911.45,343.922L1885.54,333.238L1885.54,432.056L1889.1,432.056C1899.77,432.056 1910.44,426.467 1910.44,424.18L1910.44,408.427L1932.8,408.427L1932.8,421.639L1937.12,421.639C1945.76,421.639 1958.21,416.049 1958.21,414.017L1958.21,354.82C1963.03,353.802 1966.08,351.768 1967.61,349.993L1942.45,331.202ZM1910.44,401.345L1910.44,351.005L1932.8,351.005L1932.8,401.345L1910.44,401.345ZM1920.44,391.345L1920.44,361.005C1920.44,361.005 1922.8,361.005 1922.8,361.005C1922.8,361.005 1922.8,391.344 1922.8,391.344L1920.44,391.345ZM2076.11,369.135L2058.66,369.135C2058.66,369.135 2058.66,374.067 2058.66,374.067L2072.25,374.067L2076.11,369.135ZM1968.21,366.719L1968.21,374.067L2011.73,374.067C2011.73,374.067 2011.73,369.135 2011.73,369.135L1974.72,369.135C1972.27,369.135 1969.97,368.24 1968.21,366.719ZM1959.7,328.326C1958.82,328.431 1957.9,328.483 1956.93,328.483L1955.52,328.483L1973.35,341.799L1991.89,341.799C1990.11,338.324 1987.9,335.094 1985.72,332.548L1967.86,332.548C1964.55,332.548 1961.54,330.92 1959.7,328.326ZM2034.9,332.548C2036.09,334.812 2036.81,337.107 2037.17,339.343C2037.3,340.166 2037.39,340.986 2037.42,341.799C2037.42,341.799 2037.91,341.799 2037.91,341.799C2039,338.817 2040.12,335.682 2041.21,332.548L2034.9,332.548ZM1931.29,328.483L1900.24,328.483L1913.43,333.922C1913.43,333.922 1926.18,333.922 1926.18,333.922L1931.29,328.483ZM1956.93,318.483C1960.24,318.483 1962.53,317.218 1963.29,314.435C1955.16,306.567 1941.94,296.391 1941.94,296.391L1930.26,311.146L1884.01,311.146L1886.05,318.483L1956.93,318.483ZM1967.98,292.291C1965.27,294.492 1961.63,295.681 1957.08,295.704C1960.69,298.67 1964.82,302.178 1968.36,305.465L2012.49,305.465C2012.49,305.465 2012.49,303.837 2012.49,303.837L1978.79,303.837C1974.29,303.837 1970.35,300.838 1969.15,296.507L1967.98,292.291ZM2072.87,303.837L2058.4,303.837C2058.4,303.837 2058.4,305.465 2058.4,305.465C2058.4,305.465 2071.64,305.465 2071.64,305.465L2072.87,303.837ZM1884.01,278.37L1886.05,285.706L1956.93,285.706C1960.24,285.706 1962.53,284.441 1963.29,281.658C1955.16,273.786 1941.94,263.347 1941.94,263.347L1930.26,278.37L1884.01,278.37ZM2012.49,273.347L2005.91,273.347C2005.48,274.365 2004.84,275.442 2003.92,276.5L2012.49,276.5L2012.49,273.347ZM1996.81,263.347L2080.18,263.347L2080.18,271.224L2084.24,271.224C2091.85,271.224 2103.78,266.904 2104.03,265.126L2104.03,223.968C2108.61,222.951 2112.42,220.916 2113.94,219.141L2089.32,200.621L2077.89,212.817L1998.34,212.817L1973.47,202.908L1973.47,276.305L1976.77,276.305C1986.41,276.305 1996.81,270.969 1996.81,269.191L1996.81,263.347ZM1963.47,268.272L1963.47,263.184L1957.53,263.184C1959.43,264.779 1961.46,266.513 1963.47,268.272ZM2045.88,220.153L2045.88,256.01L2031.87,256.01L2031.87,220.153L2045.88,220.153ZM2010.82,220.153L2010.82,256.01L1996.81,256.01L1996.81,220.153L2010.82,220.153ZM2080.18,220.153L2080.18,256.01L2066.94,256.01L2066.94,220.153L2080.18,220.153ZM1937.62,245.847L1874.36,245.847L1876.39,253.184L1966.08,253.184C1969.38,253.184 1971.93,251.919 1972.69,249.136C1964.05,241.02 1950.08,229.84 1950.08,229.84L1937.62,245.847ZM1896.48,202.145C1903.85,210.53 1912.23,224.222 1914.27,236.683C1940.93,253.976 1964.3,203.654 1898.5,200.605L1896.48,202.145Z" style="fill:white;"/>
            </g>
        </g>
    </g>
</svg>
