<?xml version="1.0" encoding="UTF-8" standalone="no"?>
<!DOCTYPE svg PUBLIC "-//W3C//DTD SVG 1.1//EN" "http://www.w3.org/Graphics/SVG/1.1/DTD/svg11.dtd">
<svg width="100%" height="100%" viewBox="0 0 1750 241" version="1.1" xmlns="http://www.w3.org/2000/svg" xmlns:xlink="http://www.w3.org/1999/xlink" xml:space="preserve" xmlns:serif="http://www.serif.com/" style="fill-rule:evenodd;clip-rule:evenodd;stroke-linejoin:round;stroke-miterlimit:2;">
    <g transform="matrix(1,0,0,1,-2734.2,-250.782)">
        <g transform="matrix(1,0,0,1,2649,151.208)">
            <g transform="matrix(1,0,0,1,-279.412,-95.6956)">
                <path d="M484.539,327.391L484.539,259.552L541.707,259.552L541.707,327.391L484.539,327.391ZM396.119,327.391L396.119,259.552L452.779,259.552L452.779,327.391L396.119,327.391ZM553.649,236.43L539.42,252.183L484.539,252.183L484.539,207.719C491.399,206.689 493.432,203.856 493.94,200.25L452.779,196.413L452.779,252.183L398.406,252.183L364.613,238.971L364.613,359.914L369.187,359.914C382.145,359.914 396.119,352.799 396.119,349.75L396.119,334.76L452.779,334.76L452.779,434.613L458.623,434.613C470.819,434.613 484.539,426.991 484.539,423.688L484.539,334.76L541.707,334.76L541.707,356.102L547.043,356.102C557.46,356.102 573.213,350.513 573.467,348.48L573.467,264.887C578.803,263.871 582.106,261.33 583.885,259.298L553.649,236.43Z" style="fill-rule:nonzero;"/>
                <path d="M674.337,400.566L674.337,317.482L774.699,317.482L774.699,400.566L674.337,400.566ZM774.699,230.587L774.699,310.368L674.337,310.368L674.337,230.587L774.699,230.587ZM787.403,206.449L772.158,223.218L676.37,223.218L642.831,209.498L642.831,433.089L648.167,433.089C661.887,433.089 674.337,425.466 674.337,421.401L674.337,407.935L774.699,407.935L774.699,431.056L779.781,431.056C791.468,431.056 806.713,423.434 806.967,421.147L806.967,235.668C812.049,234.398 815.352,232.365 817.13,230.332L787.403,206.449Z" style="fill-rule:nonzero;"/>
                <path d="M994.218,390.927C996.755,380.231 1000.06,365.504 1002.09,355.578L1013.79,355.578L1013.79,390.927L994.218,390.927ZM1001.83,288.755L1050.9,288.755L1050.9,314.449L1001.83,314.449L1001.83,288.755ZM1057.5,390.927L1040.47,390.927L1040.47,355.578L1077.8,355.578C1081.36,355.578 1083.64,354.313 1084.41,351.53C1076.79,343.655 1064.1,332.984 1064.1,332.984L1052.68,348.242L1040.47,348.242L1040.47,321.531L1050.9,321.531L1050.9,328.418L1055.47,328.418C1063.59,328.418 1076.53,323.827 1076.79,322.042L1076.79,292.062C1081.1,291.045 1084.15,289.264 1085.68,287.743L1060.29,268.938L1048.61,281.419L1002.85,281.419L975.438,270.465L975.438,333.743L978.991,333.743C989.904,333.743 1001.83,328.163 1001.83,325.867L1001.83,321.531L1013.79,321.531L1013.79,348.242L963.474,348.242L965.51,355.578L976.707,355.578C975.184,364.486 972.384,378.207 969.583,388.378C966.274,389.907 962.71,391.939 960.165,393.963L984.321,409.697L994.471,398.264L1013.79,398.264L1013.79,435.105L1018.62,435.105C1032.34,435.105 1040.47,430.278 1040.47,429.008L1040.47,398.264L1087.96,398.264C1091.27,398.264 1094.06,396.999 1094.57,394.216C1085.42,386.083 1070.69,374.157 1070.69,374.157L1057.5,390.927ZM1023.69,230.571L1043.77,230.571L1043.77,259.314L1020.14,259.314L1023.69,230.571ZM889.527,329.948L889.527,303.238L934.277,303.238L934.277,329.948L889.527,329.948ZM934.277,269.191L934.277,295.901L889.527,295.901L889.527,269.191L934.277,269.191ZM1068.67,256.513L1068.67,234.386C1073.75,233.368 1077.56,231.334 1079.34,229.306L1053.68,210.022L1041.25,223.234L1024.84,223.234L1027.12,207.227C1032.42,206.465 1035.44,203.67 1036.2,199.859L1000.84,196.302C1000.08,204.686 999.311,214.087 998.29,223.234L968.042,223.234L970.33,230.571L997.527,230.571C996.257,241.02 994.987,251.437 993.97,259.314L961.702,259.314L963.719,266.155L943.138,250.15L932.213,261.854L925.607,261.854L925.607,240.226L961.432,240.226C964.989,240.226 967.53,238.961 968.292,236.179C959.145,227.804 944.409,215.856 944.409,215.856L931.197,233.143L925.607,233.143L925.607,205.941C931.451,204.924 933.483,202.638 933.992,199.335L898.959,196.286L898.959,233.143L857.545,233.143L859.578,240.226L898.959,240.226L898.959,261.854L890.547,261.854L865.93,251.676L865.93,349.734L869.228,349.734C879.378,349.734 889.527,344.399 889.527,342.112L889.527,337.284L899.214,337.284L899.214,374.666L857.037,374.666L859.07,381.749L899.214,381.749L899.214,433.835L904.036,433.835C917.486,433.835 925.607,428.499 925.607,426.975L925.607,381.749L963.466,381.749C967.024,381.749 969.565,380.484 970.073,377.701C961.433,369.58 947.219,358.137 947.219,358.137L934.531,374.666L925.607,374.666L925.607,337.284L934.277,337.284L934.277,345.676L938.337,345.676C946.711,345.676 958.384,339.827 958.637,337.539L958.637,271.48C962.195,270.972 964.991,269.192 966.261,267.921L964.228,266.396L1090.78,266.396C1094.33,266.396 1096.62,265.131 1097.38,262.349C1090.27,254.74 1077.56,243.815 1077.56,243.815L1068.67,256.513Z" style="fill-rule:nonzero;"/>
                <path d="M1229,384.058C1231.03,382.787 1233.06,380.753 1234.59,377.702C1253.64,360.67 1270.66,343.13 1278.8,334.769L1277.27,331.98C1268.12,336.286 1258.98,340.587 1250.34,344.401L1250.34,250.913L1269.9,250.913C1272.44,284.197 1277.52,316.978 1287.43,342.622C1274.48,362.962 1258.47,378.97 1239.41,390.657L1242.46,393.455C1262.79,384.813 1280.07,373.38 1294.8,358.389C1300.14,367.79 1306.24,375.412 1313.86,381.256C1324.02,389.895 1338.25,395.237 1345.87,387.1C1350.44,382.781 1347.65,374.142 1341.3,364.741L1345.62,328.674L1343.08,327.912C1340.03,336.286 1335.71,348.218 1332.66,353.559C1330.88,356.61 1329.1,356.865 1326.31,353.813C1321.23,349.49 1316.91,343.385 1313.35,335.78C1325.04,318.758 1333.93,299.18 1340.28,277.352C1346.13,277.606 1349.17,275.318 1350.19,272.267L1317.92,263.37C1314.87,280.148 1310.3,295.875 1304.2,310.622C1299.63,292.57 1297.09,271.505 1295.82,250.913L1344.35,250.913C1347.9,250.913 1350.44,249.643 1351.21,246.848C1345.87,242.02 1338.76,236.176 1333.42,231.857C1340.54,224.489 1337.49,207.973 1305.47,202.317L1303.19,204.122C1308.78,210.768 1314.62,222.202 1315.38,231.857C1316.91,233.127 1318.43,233.89 1319.96,234.652L1313.1,243.799L1295.31,243.799C1294.8,230.841 1294.55,218.645 1294.55,206.957C1300.64,205.926 1302.93,203.091 1303.19,199.74L1267.36,196.413C1267.62,212.039 1268.12,227.792 1269.39,243.799L1254.15,243.799L1225.18,229.316L1225.18,281.161C1216.29,272.776 1204.1,263.37 1204.1,263.37L1191.39,280.402L1182.5,280.402L1182.5,243.021L1216.29,243.021C1219.85,243.021 1222.39,241.756 1223.15,238.973C1214.51,230.854 1200.79,219.668 1200.79,219.668L1188.34,235.684L1182.5,235.684L1182.5,205.941C1188.34,204.908 1190.38,202.584 1190.63,199.226L1155.82,196.159L1155.82,235.684L1120.25,235.684L1122.28,243.021L1155.82,243.021L1155.82,280.402L1113.9,280.402L1115.93,287.739L1221.12,287.739C1222.64,287.739 1224.17,287.486 1225.18,286.98L1225.18,346.434C1225.18,351.519 1223.66,353.806 1212.48,360.416L1229,384.058ZM1186.31,340.333L1218.58,340.333C1222.13,340.333 1224.42,339.069 1225.18,336.286C1217.31,328.167 1203.59,315.965 1203.59,315.965L1191.39,333.251L1186.31,333.251L1186.31,302.491C1191.9,301.475 1193.68,299.188 1194.44,296.139L1161.15,292.578L1161.15,381.516C1155.06,375.923 1149.72,368.805 1145.15,359.908C1147.94,344.909 1149.72,329.692 1150.74,315.965C1156.84,315.965 1159.63,313.422 1160.39,309.863L1125.58,303C1127.36,342.621 1123.81,396.26 1110.09,431.548L1112.88,434.089C1128.63,416.318 1137.53,393.209 1143.12,369.568C1160.65,417.079 1191.14,427.991 1248.05,427.991L1336.22,427.991C1336.73,416.828 1342.06,406.918 1352.73,404.632L1352.73,401.344C1328.09,402.107 1271.93,402.107 1249.07,402.107C1222.9,402.107 1202.57,400.836 1186.31,395.751L1186.31,340.333Z" style="fill-rule:nonzero;"/>
                <path d="M1467.58,405.394L1467.58,340.603L1551.68,340.603L1551.68,405.394L1467.58,405.394ZM1563.62,317.228L1548.88,333.235L1472.66,333.235C1513.82,310.114 1546.09,280.132 1568.7,244.815C1575.82,244.307 1578.61,243.545 1580.64,240.496L1551.68,212.801L1532.11,230.332L1471.39,230.332C1476.47,223.726 1481.04,217.12 1485.11,210.514C1491.97,211.022 1494,209.752 1495.27,206.957L1453.6,195.269C1437.34,236.939 1402.79,286.484 1369.25,313.671L1371.28,316.212C1395.42,303.762 1419.56,285.468 1440.14,265.396C1446.74,275.813 1453.35,288.517 1454.87,300.459C1480.53,320.531 1507.21,274.542 1446.74,258.789C1453.35,251.675 1459.7,244.561 1465.54,237.447L1532.11,237.447C1501.37,292.582 1438.1,340.857 1365.44,368.298L1366.96,371.601C1392.11,366.52 1415.24,359.405 1436.58,350.513L1436.58,435.375L1442.42,435.375C1458.17,435.375 1467.58,428.515 1467.58,426.229L1467.58,412.762L1551.68,412.762L1551.68,432.326L1556.76,432.326C1567.43,432.326 1582.67,425.72 1582.93,423.434L1582.93,346.193C1588.77,345.177 1592.33,342.636 1594.11,340.349L1563.62,317.228Z" style="fill-rule:nonzero;"/>
                <path d="M1842.85,263.378C1845.14,264.394 1847.42,264.903 1849.46,264.648C1847.93,269.467 1846.41,274.021 1844.63,277.577C1843.61,279.865 1842.59,280.373 1840.31,279.356C1831.91,275.035 1827.59,260.836 1825.82,244.315C1832.68,249.399 1839.8,256.769 1842.85,263.378ZM1800.68,217.12C1801.69,257.773 1806.52,291.312 1832.44,303.762C1842.09,308.335 1853.78,309.097 1858.1,299.951C1860.13,294.869 1858.61,290.041 1853.02,283.943L1854.03,262.855C1860.89,257.265 1858.35,242.528 1832.69,240.242C1839.8,236.176 1846.92,231.857 1851.49,228.808C1856.07,230.332 1859.62,228.554 1860.64,227.029L1840.06,210.514C1837.01,217.374 1830.91,229.57 1825.58,238.717C1825.07,232.365 1825.07,225.759 1825.32,219.407C1829.13,218.645 1833.2,217.374 1834.47,215.596L1810.59,197.302L1798.13,210.006L1728.53,210.006L1730.82,217.12L1800.68,217.12ZM1759.5,308.589L1759.5,249.134C1762.3,247.372 1764.85,245.339 1767.4,243.052C1768.42,243.306 1769.44,243.561 1770.46,243.815L1770.46,308.589L1759.5,308.589ZM1722.16,308.589C1726.74,299.692 1720.39,283.169 1686.83,276.306L1686.83,274.527L1724.2,274.527C1727.51,274.527 1729.8,273.262 1730.56,270.479C1728.52,268.708 1726.23,266.682 1723.94,264.903C1728.52,263.633 1732.85,262.108 1737.43,260.584L1737.43,308.589L1722.16,308.589ZM1664,337.539L1664,367.806L1651.52,367.806L1651.52,337.539L1664,337.539ZM1697.54,337.539L1697.54,367.806L1685.05,367.806L1685.05,337.539L1697.54,337.539ZM1685.05,406.68L1685.05,375.142L1697.54,375.142L1697.54,406.68L1685.05,406.68ZM1651.52,375.142L1664,375.142L1664,406.68L1651.52,406.68L1651.52,375.142ZM1842.84,316.975C1840.04,323.589 1833.94,334.756 1828.61,343.388C1828.61,334.756 1828.61,326.387 1829.12,318.501C1833.69,317.738 1836.99,316.466 1838.52,314.687L1813.64,294.862L1800.68,308.589L1793.29,308.589L1793.29,235.16C1797.88,234.398 1799.41,232.111 1799.92,229.57L1770.46,226.521L1770.46,235.922L1747.58,221.948C1740.2,237.702 1729.52,251.683 1719.1,260.835C1714.28,257.023 1710.48,253.973 1710.48,253.973L1699.82,267.19L1686.83,267.19L1686.83,224.997C1696.26,223.98 1705.15,222.964 1712.51,221.694C1719.61,224.743 1724.94,224.743 1728.25,222.202L1702.1,196.032C1683.79,205.433 1647.71,218.645 1619.79,225.251L1620.55,229.064C1634.01,229.064 1648.72,228.301 1662.98,227.285L1662.98,267.19L1618.52,267.19L1620.55,274.527L1655.08,274.527C1645.93,293.34 1632.23,312.661 1615.98,326.389L1618.77,329.948C1622.58,328.168 1626.14,326.134 1629.7,324.101L1629.7,434.089L1632.99,434.089C1642.63,434.089 1651.52,429.008 1651.52,426.721L1651.52,413.763L1697.54,413.763L1697.54,426.721L1701.09,426.721C1708.7,426.721 1720.12,421.893 1720.37,420.369L1720.37,340.335C1724.44,339.572 1727.49,337.793 1728.76,336.021L1706.16,318.508L1695.24,330.202L1652.79,330.202L1633.25,321.813C1644.16,315.203 1654.06,307.576 1662.98,299.441L1662.98,327.66L1667.29,327.66C1679.22,327.66 1686.83,322.321 1686.83,320.796L1686.83,281.391C1693.96,289.787 1701.58,301.729 1704.38,311.638C1710.73,315.958 1716.83,314.941 1720.39,311.13L1721.91,315.958L1737.43,315.958L1737.43,324.088C1737.43,363.471 1736.15,402.853 1713.27,433.089L1716.58,435.629C1756.96,406.41 1759.5,363.471 1759.5,323.834L1759.5,315.958L1770.46,315.958L1770.46,434.613L1774.77,434.613C1782.89,434.613 1793.29,429.023 1793.29,426.483L1793.29,315.958L1803.49,315.958C1803.49,365.503 1806.79,412 1831.66,429.023C1840.56,435.375 1852.51,437.408 1858.1,428.261C1860.89,423.688 1859.37,417.59 1853.78,409.713L1855.81,379.224L1853.02,378.97C1850.73,386.846 1848.44,394.468 1845.9,400.566C1844.88,403.107 1843.61,403.615 1841.58,402.345C1833.69,395.993 1830.13,374.65 1828.86,351.783C1835.47,358.643 1841.58,367.79 1843.36,375.412C1859.88,386.084 1873.6,356.356 1833.69,346.955C1841.07,342.89 1848.69,338.571 1853.27,335.268C1857.84,337.046 1861.15,335.522 1862.42,333.997L1842.84,316.975ZM1630.71,230.587C1635.03,237.447 1639.35,249.134 1639.35,258.535C1654.57,273.526 1676.67,243.545 1633.76,229.062L1630.71,230.587ZM1692.68,263.109C1702.09,255.741 1712.25,246.848 1717.84,240.75C1723.18,241.512 1725.98,238.717 1726.74,236.43L1699.55,226.775C1697.77,235.16 1693.7,251.675 1689.89,261.838L1692.68,263.109Z" style="fill-rule:nonzero;"/>
                <path d="M2010.82,220.153L2010.82,256.01L1996.81,256.01L1996.81,220.153L2010.82,220.153ZM2045.88,220.153L2045.88,256.01L2031.87,256.01L2031.87,220.153L2045.88,220.153ZM2080.18,220.153L2080.18,256.01L2066.94,256.01L2066.94,220.153L2080.18,220.153ZM1996.81,263.347L2080.18,263.347L2080.18,271.224L2084.24,271.224C2091.85,271.224 2103.78,266.904 2104.03,265.126L2104.03,223.968C2108.61,222.951 2112.42,220.916 2113.94,219.141L2089.32,200.621L2077.89,212.817L1998.34,212.817L1973.47,202.908L1973.47,276.305L1976.77,276.305C1986.41,276.305 1996.81,270.969 1996.81,269.191L1996.81,263.347ZM1896.48,202.145C1903.85,210.53 1912.23,224.222 1914.27,236.683C1940.93,253.976 1964.3,203.654 1898.5,200.605L1896.48,202.145ZM1937.62,245.847L1874.36,245.847L1876.39,253.184L1966.08,253.184C1969.38,253.184 1971.93,251.919 1972.69,249.136C1964.05,241.02 1950.08,229.84 1950.08,229.84L1937.62,245.847ZM1884.01,278.37L1886.05,285.706L1956.93,285.706C1960.24,285.706 1962.53,284.441 1963.29,281.658C1955.16,273.786 1941.94,263.347 1941.94,263.347L1930.26,278.37L1884.01,278.37ZM1956.93,318.483C1960.24,318.483 1962.53,317.218 1963.29,314.435C1955.16,306.567 1941.94,296.391 1941.94,296.391L1930.26,311.146L1884.01,311.146L1886.05,318.483L1956.93,318.483ZM1910.44,401.345L1910.44,351.005L1932.8,351.005L1932.8,401.345L1910.44,401.345ZM1942.45,331.202L1930.51,343.922L1911.45,343.922L1885.54,333.238L1885.54,432.056L1889.1,432.056C1899.77,432.056 1910.44,426.467 1910.44,424.18L1910.44,408.427L1932.8,408.427L1932.8,421.639L1937.12,421.639C1945.76,421.639 1958.21,416.049 1958.21,414.017L1958.21,354.82C1963.03,353.802 1966.08,351.768 1967.61,349.993L1942.45,331.202ZM2077.12,384.067L2048.66,384.067L2048.66,359.135L2100.24,359.135C2103.79,359.135 2106.34,357.87 2106.84,355.088C2098.46,346.966 2084.23,336.283 2084.23,336.283L2072.03,351.799L2053.49,351.799C2061.87,346.457 2070.51,340.353 2076.61,336.029C2081.69,337.046 2084.99,335.266 2086.26,332.468L2062.63,322.548L2106.08,322.548C2109.64,322.548 2112.18,321.283 2112.94,318.501C2104.05,310.384 2089.31,298.696 2089.31,298.696L2076.61,315.465L2048.4,315.465L2048.4,293.837L2093.63,293.837C2097.19,293.837 2099.73,292.572 2100.49,289.789C2091.6,281.667 2077.37,270.223 2077.37,270.223L2064.92,286.5L2048.4,286.5L2048.4,273.272C2053.23,272.51 2054.76,270.477 2055.26,267.936L2022.49,264.887L2022.49,286.5L1976.75,286.5L1978.79,293.837L2022.49,293.837L2022.49,315.465L1965.83,315.465L1967.86,322.548L2055.01,322.548C2052.22,331.705 2048.15,343.151 2044.85,351.799L2023,351.799C2031.89,344.68 2029.86,326.121 1994.29,323.326L1992.25,324.85C1998.1,331.206 2004.19,341.884 2005.47,351.29L2006.23,351.799L1972.69,351.799L1974.72,359.135L2021.73,359.135L2021.73,384.067L1962.53,384.067L1964.56,391.404L2021.73,391.404L2021.73,436.122L2026.55,436.122C2040.53,436.122 2048.66,431.548 2048.66,430.278L2048.66,391.404L2107.35,391.404C2110.91,391.404 2113.45,390.139 2114.21,387.356C2105.06,378.725 2090.07,367.531 2090.07,367.531L2077.12,384.067Z" style="fill-rule:nonzero;"/>
            </g>
        </g>
    </g>
</svg>
